<svg width="161" height="35" viewBox="0 0 161 35" fill="none" xmlns="http://www.w3.org/2000/svg">
<circle cx="81" cy="17" r="17" fill="#FFE227"/>
<path d="M10.808 27.308C8.75467 27.308 6.98133 26.86 5.488 25.964C4.01333 25.0493 2.89333 23.7987 2.128 22.212C1.36267 20.6253 0.98 18.8333 0.98 16.836C0.98 14.54 1.41867 12.5707 2.296 10.928C3.192 9.28533 4.452 8.044 6.076 7.204C7.7 6.364 9.59467 5.944 11.76 5.944C13.7947 5.944 16.0813 6.23333 18.62 6.812L18.312 12.02H15.484L14.728 8.436C14.5413 8.24933 14.1867 8.08133 13.664 7.932C13.1413 7.764 12.46 7.68 11.62 7.68C9.79067 7.68 8.35333 8.42667 7.308 9.92C6.26267 11.3947 5.74 13.532 5.74 16.332C5.74 19.076 6.188 21.2973 7.084 22.996C7.98 24.676 9.34267 25.516 11.172 25.516C11.9187 25.516 12.6187 25.4227 13.272 25.236C13.9253 25.0493 14.42 24.8067 14.756 24.508V18.488L11.788 18.208V16.332H20.3V18.208L18.816 18.46V25.88C18.424 25.8987 17.7147 26.0573 16.688 26.356C15.4933 26.6733 14.4667 26.9067 13.608 27.056C12.768 27.224 11.8347 27.308 10.808 27.308ZM21.7879 22.632C21.7879 20.9333 22.6373 19.6547 24.3359 18.796C26.0533 17.9373 28.2653 17.4987 30.9719 17.48V16.836C30.9719 16.0707 30.8879 15.4733 30.7199 15.044C30.5706 14.6147 30.2813 14.2973 29.8519 14.092C29.4413 13.868 28.8346 13.756 28.0319 13.756C27.1173 13.756 26.2959 13.8773 25.5679 14.12C24.8399 14.344 24.0839 14.6427 23.2999 15.016L22.4319 13.224C22.7119 12.9813 23.1786 12.692 23.8319 12.356C24.5039 12.02 25.2973 11.7307 26.2119 11.488C27.1266 11.2267 28.0693 11.096 29.0399 11.096C30.4773 11.096 31.5973 11.2827 32.3999 11.656C33.2213 12.0293 33.8093 12.6267 34.1639 13.448C34.5186 14.2693 34.6959 15.3707 34.6959 16.752V25.32H36.2079V26.888C35.8346 26.9813 35.3026 27.0747 34.6119 27.168C33.9213 27.2613 33.3146 27.308 32.7919 27.308C32.1573 27.308 31.7279 27.2147 31.5039 27.028C31.2986 26.8413 31.1959 26.4587 31.1959 25.88V25.124C30.6919 25.684 30.0386 26.188 29.2359 26.636C28.4333 27.084 27.5279 27.308 26.5199 27.308C25.6613 27.308 24.8679 27.1307 24.1399 26.776C23.4306 26.4027 22.8613 25.8707 22.4319 25.18C22.0026 24.4707 21.7879 23.6213 21.7879 22.632ZM28.3119 24.984C28.7039 24.984 29.1519 24.872 29.6559 24.648C30.1599 24.4053 30.5986 24.116 30.9719 23.78V19.188C29.2919 19.188 28.0319 19.4773 27.1919 20.056C26.3706 20.616 25.9599 21.344 25.9599 22.24C25.9599 23.136 26.1653 23.8173 26.5759 24.284C27.0053 24.7507 27.5839 24.984 28.3119 24.984ZM37.9553 25.32L39.5233 25.068V14.092L37.7313 13.588V11.656L42.3793 11.068L42.7153 11.292L43.1353 12.216V13.392C43.7513 12.7947 44.6286 12.272 45.7673 11.824C46.9246 11.3573 47.9233 11.124 48.7633 11.124C49.7713 11.124 50.5833 11.292 51.1993 11.628C51.834 11.964 52.31 12.4867 52.6273 13.196C53.2433 12.636 54.0553 12.1507 55.0633 11.74C56.0713 11.3293 57.0606 11.124 58.0313 11.124C59.6926 11.124 60.8686 11.6093 61.5593 12.58C62.25 13.5507 62.5953 15.1373 62.5953 17.34V25.068L64.4153 25.32V27H57.1633V25.32L58.6193 25.068V17.452C58.6193 15.996 58.442 14.9787 58.0873 14.4C57.7513 13.8027 57.098 13.504 56.1273 13.504C55.6046 13.504 55.0633 13.6253 54.5033 13.868C53.962 14.092 53.4766 14.372 53.0473 14.708C53.178 15.4173 53.2433 16.304 53.2433 17.368V25.068L54.9793 25.32V27H47.6713V25.32L49.2113 25.068V17.368C49.2113 16.3973 49.146 15.6413 49.0153 15.1C48.9033 14.54 48.6793 14.1387 48.3433 13.896C48.0073 13.6347 47.522 13.504 46.8873 13.504C46.29 13.504 45.6926 13.644 45.0953 13.924C44.5166 14.1853 43.994 14.5027 43.5273 14.876V25.068L45.1793 25.32V27H37.9553V25.32ZM73.3668 27.308C70.9028 27.308 69.0641 26.5893 67.8508 25.152C66.6561 23.696 66.0588 21.7173 66.0588 19.216C66.0588 17.536 66.3668 16.08 66.9828 14.848C67.6174 13.616 68.5041 12.6733 69.6428 12.02C70.7814 11.3667 72.0974 11.04 73.5908 11.04C75.4574 11.04 76.8948 11.5347 77.9028 12.524C78.9108 13.4947 79.4334 14.8853 79.4708 16.696C79.4708 17.928 79.3961 18.8427 79.2468 19.44H70.1468C70.2214 21.1387 70.6228 22.464 71.3508 23.416C72.0788 24.3493 73.1148 24.816 74.4588 24.816C75.1868 24.816 75.9334 24.6947 76.6988 24.452C77.4828 24.2093 78.0988 23.92 78.5468 23.584L79.2468 25.124C78.7428 25.6653 77.9214 26.1693 76.7828 26.636C75.6628 27.084 74.5241 27.308 73.3668 27.308ZM75.5508 17.76C75.5881 17.2373 75.6068 16.836 75.6068 16.556C75.6068 14.0733 74.7761 12.832 73.1148 12.832C72.2001 12.832 71.4908 13.196 70.9868 13.924C70.4828 14.652 70.2028 15.9307 70.1468 17.76H75.5508ZM88.7613 27.308C87.7533 27.308 86.848 27.224 86.0453 27.056C85.2426 26.888 84.3466 26.664 83.3573 26.384C82.704 26.1973 82.2653 26.0947 82.0413 26.076L82.2933 20.896H84.5613L85.1773 24.508C85.42 24.7693 85.8493 25.0027 86.4653 25.208C87.1 25.4133 87.8186 25.516 88.6213 25.516C89.872 25.516 90.8053 25.2453 91.4213 24.704C92.056 24.144 92.3733 23.3693 92.3733 22.38C92.3733 21.7267 92.1866 21.1667 91.8133 20.7C91.44 20.2147 90.9266 19.7853 90.2733 19.412C89.62 19.02 88.724 18.572 87.5853 18.068C86.036 17.3587 84.748 16.5187 83.7213 15.548C82.7133 14.5587 82.2093 13.224 82.2093 11.544C82.2093 10.4987 82.48 9.556 83.0213 8.716C83.5626 7.85733 84.3653 7.18533 85.4293 6.7C86.512 6.196 87.828 5.944 89.3773 5.944C90.292 5.944 91.0946 6.00933 91.7853 6.14C92.4946 6.27067 93.26 6.448 94.0813 6.672C94.5666 6.80267 94.9306 6.88667 95.1733 6.924L95.0053 11.824H92.7653L92.1773 8.38C92.0093 8.212 91.6733 8.05333 91.1693 7.904C90.6653 7.736 90.1053 7.652 89.4893 7.652C88.3693 7.652 87.52 7.91333 86.9413 8.436C86.3813 8.94 86.1013 9.62133 86.1013 10.48C86.1013 11.1707 86.3066 11.768 86.7173 12.272C87.1466 12.776 87.66 13.2053 88.2573 13.56C88.8546 13.896 89.7973 14.3813 91.0853 15.016C92.1306 15.52 93.0266 16.0147 93.7733 16.5C94.52 16.9853 95.164 17.62 95.7053 18.404C96.2466 19.1693 96.5173 20.0747 96.5173 21.12C96.5173 22.1467 96.256 23.1267 95.7333 24.06C95.2293 24.9933 94.3893 25.768 93.2133 26.384C92.056 27 90.572 27.308 88.7613 27.308ZM114.06 18.712C114.06 20.28 113.734 21.7173 113.08 23.024C112.446 24.3307 111.503 25.376 110.252 26.16C109.02 26.9253 107.546 27.308 105.828 27.308C105.455 27.308 105.063 27.2707 104.652 27.196C104.26 27.14 103.943 27.0653 103.7 26.972L103.784 29.296V31.844L106.388 32.18V33.776H98.0724V32.18L99.8924 31.844V14.092L98.0724 13.588V11.656L102.692 11.068H102.748L103.448 11.628V13.196C103.915 12.6173 104.55 12.1133 105.352 11.684C106.155 11.2547 107.032 11.04 107.984 11.04C109.758 11.04 111.214 11.6747 112.352 12.944C113.491 14.1947 114.06 16.1173 114.06 18.712ZM106.528 13.364C105.968 13.364 105.436 13.4853 104.932 13.728C104.428 13.9707 104.046 14.2413 103.784 14.54V24.928C103.915 25.1147 104.176 25.2733 104.568 25.404C104.979 25.5347 105.427 25.6 105.912 25.6C107.126 25.6 108.087 25.0773 108.796 24.032C109.524 22.968 109.888 21.3067 109.888 19.048C109.888 17.144 109.58 15.7253 108.964 14.792C108.348 13.84 107.536 13.364 106.528 13.364ZM116.042 22.632C116.042 20.9333 116.891 19.6547 118.59 18.796C120.307 17.9373 122.519 17.4987 125.226 17.48V16.836C125.226 16.0707 125.142 15.4733 124.974 15.044C124.825 14.6147 124.535 14.2973 124.106 14.092C123.695 13.868 123.089 13.756 122.286 13.756C121.371 13.756 120.55 13.8773 119.822 14.12C119.094 14.344 118.338 14.6427 117.554 15.016L116.686 13.224C116.966 12.9813 117.433 12.692 118.086 12.356C118.758 12.02 119.551 11.7307 120.466 11.488C121.381 11.2267 122.323 11.096 123.294 11.096C124.731 11.096 125.851 11.2827 126.654 11.656C127.475 12.0293 128.063 12.6267 128.418 13.448C128.773 14.2693 128.95 15.3707 128.95 16.752V25.32H130.462V26.888C130.089 26.9813 129.557 27.0747 128.866 27.168C128.175 27.2613 127.569 27.308 127.046 27.308C126.411 27.308 125.982 27.2147 125.758 27.028C125.553 26.8413 125.45 26.4587 125.45 25.88V25.124C124.946 25.684 124.293 26.188 123.49 26.636C122.687 27.084 121.782 27.308 120.774 27.308C119.915 27.308 119.122 27.1307 118.394 26.776C117.685 26.4027 117.115 25.8707 116.686 25.18C116.257 24.4707 116.042 23.6213 116.042 22.632ZM122.566 24.984C122.958 24.984 123.406 24.872 123.91 24.648C124.414 24.4053 124.853 24.116 125.226 23.78V19.188C123.546 19.188 122.286 19.4773 121.446 20.056C120.625 20.616 120.214 21.344 120.214 22.24C120.214 23.136 120.419 23.8173 120.83 24.284C121.259 24.7507 121.838 24.984 122.566 24.984ZM131.845 19.3C131.845 17.6947 132.163 16.2667 132.797 15.016C133.451 13.7653 134.375 12.7947 135.569 12.104C136.783 11.3947 138.192 11.04 139.797 11.04C140.544 11.04 141.188 11.096 141.729 11.208C142.271 11.32 142.877 11.4693 143.549 11.656L144.361 11.88L144.193 16.668H141.757L141.057 13.588C140.945 13.1027 140.395 12.86 139.405 12.86C138.36 12.86 137.539 13.3173 136.941 14.232C136.363 15.1467 136.064 16.5747 136.045 18.516C136.045 20.5693 136.4 22.1467 137.109 23.248C137.819 24.3307 138.761 24.872 139.937 24.872C141.356 24.872 142.663 24.4893 143.857 23.724L144.501 25.18C144.016 25.7027 143.269 26.188 142.261 26.636C141.272 27.084 140.199 27.308 139.041 27.308C136.652 27.308 134.851 26.5707 133.637 25.096C132.443 23.6213 131.845 21.6893 131.845 19.3ZM153.785 27.308C151.321 27.308 149.482 26.5893 148.269 25.152C147.074 23.696 146.477 21.7173 146.477 19.216C146.477 17.536 146.785 16.08 147.401 14.848C148.035 13.616 148.922 12.6733 150.061 12.02C151.199 11.3667 152.515 11.04 154.009 11.04C155.875 11.04 157.313 11.5347 158.321 12.524C159.329 13.4947 159.851 14.8853 159.889 16.696C159.889 17.928 159.814 18.8427 159.665 19.44H150.565C150.639 21.1387 151.041 22.464 151.769 23.416C152.497 24.3493 153.533 24.816 154.877 24.816C155.605 24.816 156.351 24.6947 157.117 24.452C157.901 24.2093 158.517 23.92 158.965 23.584L159.665 25.124C159.161 25.6653 158.339 26.1693 157.201 26.636C156.081 27.084 154.942 27.308 153.785 27.308ZM155.969 17.76C156.006 17.2373 156.025 16.836 156.025 16.556C156.025 14.0733 155.194 12.832 153.533 12.832C152.618 12.832 151.909 13.196 151.405 13.924C150.901 14.652 150.621 15.9307 150.565 17.76H155.969Z" fill="black"/>
</svg>
